<?xml version="1.0" standalone="no"?>
<!DOCTYPE svg PUBLIC "-//W3C//DTD SVG 20010904//EN"
 "http://www.w3.org/TR/2001/REC-SVG-20010904/DTD/svg10.dtd">
<svg version="1.0" xmlns="http://www.w3.org/2000/svg"
 width="1000.000000pt" height="1000.000000pt" viewBox="0 0 1000.000000 1000.000000"
 preserveAspectRatio="xMidYMid meet">
<metadata>
Created by potrace 1.11, written by Peter Selinger 2001-2013
</metadata>
<g transform="translate(0.000000,1000.000000) scale(0.100000,-0.100000)"
fill="#000000" stroke="none">
<path d="M0 5000 l0 -5000 5000 0 5000 0 0 5000 0 5000 -5000 0 -5000 0 0
-5000z m2931 3751 c74 -28 135 -70 200 -136 56 -56 71 -81 804 -1340 163 -280
300 -514 304 -518 5 -5 187 299 406 675 629 1082 638 1097 680 1148 79 97 191
166 306 191 72 16 261 6 324 -16 69 -24 176 -96 225 -153 50 -56 74 -96 330
-537 111 -192 233 -402 270 -465 37 -63 107 -182 155 -265 48 -82 127 -217
175 -300 48 -82 179 -307 290 -500 112 -192 241 -415 288 -494 94 -160 144
-262 161 -333 74 -305 -72 -625 -343 -758 -199 -97 -417 -65 -586 87 -74 67
-60 44 -557 898 -513 883 -596 1025 -602 1025 -6 0 -91 -145 -401 -680 -78
-135 -159 -274 -180 -310 -197 -337 -392 -677 -418 -730 -87 -179 -260 -313
-441 -341 -239 -36 -471 100 -601 352 -29 57 -89 164 -133 238 -43 74 -120
207 -171 295 -95 164 -602 1036 -985 1695 -244 418 -261 458 -269 626 -5 124
14 226 63 329 75 158 237 296 395 336 64 17 249 5 311 -19z m1262 -4824 c94
-50 156 -140 178 -261 40 -214 -116 -426 -314 -426 -88 0 -148 23 -212 82
-213 194 -129 571 142 638 60 14 141 2 206 -33z m2464 9 c54 -26 114 -78 112
-100 0 -6 -18 -26 -40 -45 l-40 -34 -22 20 c-101 93 -242 68 -314 -54 -38 -66
-39 -166 -3 -238 63 -122 212 -154 305 -65 l30 29 49 -42 48 -43 -46 -42 c-62
-57 -125 -83 -201 -83 -258 0 -413 292 -289 541 83 164 251 229 411 156z
m-4261 5 c127 -58 153 -254 48 -353 -43 -40 -75 -48 -190 -48 l-104 0 0 -150
0 -150 -60 0 -60 0 0 360 0 360 163 0 c137 0 168 -3 203 -19z m870 -2 c92 -44
134 -151 103 -262 -11 -42 -60 -103 -90 -112 -10 -4 -19 -12 -19 -19 0 -8 29
-75 65 -151 36 -75 65 -141 65 -146 0 -6 -28 -9 -66 -7 l-65 3 -67 148 -66
147 -53 0 -53 0 0 -150 0 -150 -60 0 -60 0 0 360 0 360 162 0 c143 0 167 -2
204 -21z m1782 -261 c-3 -267 -4 -285 -25 -323 -42 -80 -105 -115 -202 -115
-65 0 -141 24 -141 45 0 16 39 105 47 105 3 0 27 -8 53 -17 40 -14 52 -15 79
-3 58 23 61 42 61 323 0 139 3 257 7 260 3 4 33 7 65 7 l59 0 -3 -282z m817
217 l0 -60 -133 -3 -133 -3 3 -82 3 -82 113 -3 112 -3 0 -59 0 -60 -115 0
-115 0 0 -85 0 -84 133 -3 132 -3 0 -60 0 -60 -192 -3 -193 -2 0 360 0 360
193 -2 192 -3 0 -60z m1690 0 l0 -60 -82 -3 -83 -3 0 -294 0 -295 -60 0 -60 0
0 295 0 295 -80 0 -80 0 0 65 0 65 223 -2 222 -3 0 -60z m-6275 -1435 l0 -360
-60 0 -60 0 0 360 0 360 60 0 60 0 0 -360z m644 158 c61 -109 114 -198 117
-198 3 0 47 73 99 163 146 253 133 237 185 237 l45 0 0 -360 0 -360 -60 0 -60
0 0 218 c-1 173 -3 214 -13 200 -7 -10 -52 -89 -102 -178 -49 -88 -91 -160
-95 -160 -3 0 -48 78 -100 173 l-95 172 -5 -210 -5 -210 -62 -3 -63 -3 0 354
c0 194 3 357 7 361 4 4 27 6 52 4 l44 -3 111 -197z m1091 3 c61 -106 115 -193
120 -193 5 0 59 87 120 193 l111 194 50 0 49 0 0 -355 0 -355 -62 -3 -63 -3
-2 215 -3 216 -90 -161 c-49 -89 -95 -168 -101 -177 -9 -12 -30 20 -112 164
l-102 179 0 -218 0 -218 -62 3 -63 3 -3 345 c-1 190 0 351 3 358 3 9 20 12 52
10 l48 -3 110 -194z m1293 173 c220 -110 266 -424 88 -606 -120 -122 -312
-122 -435 1 -178 178 -128 504 94 607 73 35 182 34 253 -2z m937 -2 c86 -48
119 -160 77 -255 -12 -26 -28 -50 -36 -53 -23 -9 -20 -17 13 -37 73 -43 93
-182 38 -266 -46 -69 -68 -75 -264 -79 l-173 -4 0 355 c0 194 3 357 8 361 4 5
72 6 152 4 128 -3 150 -7 185 -26z m650 -332 l0 -355 -62 -3 -63 -3 0 354 c0
194 3 357 7 361 4 4 32 6 63 4 l55 -3 0 -355z m557 68 l3 -293 108 -3 107 -3
0 -64 0 -65 -170 0 -170 0 0 353 c0 195 3 357 7 360 3 4 30 7 60 7 l53 0 2
-292z m726 -71 l2 -358 -62 3 -63 3 -3 345 c-1 190 0 351 3 358 3 9 22 12 62
10 l58 -3 3 -358z m820 296 l3 -63 -131 0 -130 0 0 -85 0 -85 110 0 110 0 0
-60 0 -60 -110 0 -110 0 0 -85 0 -85 130 0 130 0 0 -65 0 -65 -192 2 -193 3
-3 345 c-1 190 0 351 3 358 3 10 47 12 192 10 l188 -3 3 -62z m778 45 c119
-64 148 -238 57 -339 -19 -21 -43 -41 -53 -44 -20 -6 -24 4 84 -228 20 -43 36
-81 36 -83 0 -3 -30 -4 -67 -2 l-67 3 -66 145 -67 145 -51 3 -52 3 0 -151 0
-151 -62 3 -63 3 -3 344 c-1 190 0 351 3 359 8 22 328 13 371 -10z m-7691
-1524 c14 -9 25 -20 25 -25 0 -17 -21 -20 -42 -5 -30 22 -70 20 -100 -4 -81
-63 -46 -200 51 -200 22 0 43 5 46 10 7 12 45 13 45 2 0 -17 -38 -43 -72 -49
-110 -17 -191 130 -125 228 43 65 112 82 172 43z m2519 -17 c10 -15 2 -40 -26
-78 -9 -13 -7 -23 12 -48 l22 -32 23 21 c29 28 40 11 18 -28 -16 -28 -16 -30
6 -60 21 -31 22 -32 3 -32 -11 0 -26 10 -34 22 -14 21 -16 21 -32 5 -43 -43
-107 -28 -126 29 -12 35 2 77 34 103 12 10 13 18 5 33 -6 10 -9 33 -7 51 6 59
68 68 102 14z m979 21 c27 -10 36 -31 17 -43 -5 -3 -20 1 -32 9 -50 35 -116 6
-138 -59 -15 -46 -5 -86 30 -120 24 -23 35 -26 67 -22 21 2 48 8 61 12 37 12
27 -19 -13 -38 -48 -23 -75 -21 -116 6 -85 57 -91 189 -10 246 41 30 72 32
134 9z m385 -4 c12 -8 22 -19 22 -24 0 -18 -20 -21 -42 -6 -50 35 -116 6 -138
-59 -15 -46 -5 -86 30 -120 24 -23 35 -26 67 -22 21 2 48 8 61 12 38 12 26
-21 -14 -40 -94 -44 -192 36 -182 147 11 108 111 165 196 112z m1910 0 c40
-26 24 -51 -19 -29 -43 23 -77 18 -109 -13 -58 -58 -45 -153 25 -187 31 -14
38 -14 70 -1 31 13 35 19 35 52 0 35 -1 36 -30 32 -19 -3 -31 0 -34 9 -7 18
13 25 60 21 l39 -3 3 -64 c4 -78 -2 -98 -23 -81 -12 10 -21 10 -45 0 -99 -41
-199 78 -161 192 27 83 117 117 189 72z m-5403 -6 c51 -40 71 -129 41 -186
-37 -71 -105 -98 -170 -67 -93 44 -104 188 -20 254 37 29 111 29 149 -1z m314
-73 c40 -52 75 -95 80 -95 5 0 8 43 7 95 -1 84 1 95 16 95 16 0 18 -13 18
-147 l-1 -148 -27 31 c-15 17 -52 63 -82 103 l-55 72 -5 -98 c-4 -78 -8 -98
-20 -98 -13 0 -15 24 -18 143 -1 84 1 142 7 142 5 0 41 -43 80 -95z m425 76
c22 -25 4 -38 -25 -17 -23 16 -47 12 -66 -11 -18 -23 4 -61 43 -73 95 -32 98
-152 4 -166 -46 -7 -108 29 -90 51 11 13 16 12 37 -5 34 -27 59 -25 79 5 15
23 15 27 0 49 -8 14 -26 28 -38 31 -32 10 -78 55 -78 78 0 21 18 59 34 69 22
15 83 8 100 -11z m356 4 c0 -11 -13 -15 -54 -15 -60 0 -65 -6 -59 -60 5 -35 5
-35 49 -32 39 4 44 2 44 -17 0 -18 -6 -21 -45 -21 l-45 0 0 -45 0 -45 55 0
c48 0 55 -2 55 -20 0 -18 -7 -20 -75 -20 l-75 0 0 145 0 145 75 0 c60 0 75 -3
75 -15z m210 -130 c0 -122 -2 -145 -15 -145 -13 0 -15 23 -15 145 0 122 2 145
15 145 13 0 15 -23 15 -145z m235 23 l0 -123 48 -3 c39 -3 48 -6 45 -20 -3
-13 -16 -18 -66 -20 l-62 -3 0 146 c0 131 2 145 18 145 15 0 17 -12 17 -122z
m1150 105 c25 -64 85 -248 85 -259 0 -24 -28 -15 -34 11 -6 23 -10 25 -70 25
-60 0 -64 -2 -70 -25 -6 -25 -36 -36 -36 -13 0 7 21 72 46 145 45 128 63 155
79 116z m1179 -4 c83 -65 73 -210 -18 -253 -43 -20 -69 -20 -110 -1 -89 42
-101 191 -21 253 38 30 112 30 149 1z m305 -67 c24 -45 49 -82 55 -82 6 0 32
37 57 82 25 45 51 84 57 86 9 3 12 -35 12 -142 0 -123 -2 -146 -15 -146 -12 0
-15 17 -15 95 0 52 -3 95 -7 95 -5 0 -26 -32 -47 -72 -45 -81 -42 -82 -101 24
l-30 53 -3 -97 c-2 -78 -6 -98 -17 -98 -13 0 -15 24 -15 146 0 109 3 145 12
142 7 -3 32 -41 57 -86z m538 66 c16 -15 23 -33 23 -59 0 -52 -35 -79 -101
-79 l-49 0 0 -65 c0 -51 -3 -65 -15 -65 -13 0 -15 23 -15 145 l0 145 67 0 c55
0 71 -4 90 -22z m306 -105 c25 -71 48 -136 52 -145 5 -14 2 -18 -14 -18 -14 0
-23 8 -27 25 -6 23 -10 25 -69 25 -59 0 -63 -2 -69 -25 -7 -26 -36 -35 -36
-12 0 8 20 71 45 141 25 71 45 130 45 132 0 2 6 4 14 4 8 0 31 -48 59 -127z
m697 29 l75 -97 3 98 c2 75 6 97 17 97 11 0 15 -28 17 -141 2 -78 0 -143 -3
-145 -3 -2 -20 16 -37 39 -78 107 -120 156 -126 150 -3 -3 -6 -48 -6 -100 0
-76 -3 -93 -15 -93 -13 0 -15 23 -15 145 0 80 3 145 8 144 4 0 41 -44 82 -97z
m460 83 c0 -10 -15 -15 -57 -17 l-58 -3 -3 -39 c-4 -46 6 -55 59 -50 34 3 39
1 39 -16 0 -17 -7 -20 -50 -20 l-50 0 0 -45 0 -44 58 -3 c43 -2 57 -7 57 -18
0 -12 -16 -16 -72 -18 l-73 -3 0 146 0 145 75 0 c59 0 75 -3 75 -15z m244 -70
c26 -47 51 -85 56 -85 4 0 30 38 56 85 26 47 54 85 61 85 10 0 13 -32 13 -145
0 -122 -2 -145 -15 -145 -12 0 -15 17 -15 95 0 52 -4 95 -8 95 -5 0 -26 -31
-48 -70 -21 -38 -42 -70 -45 -70 -3 0 -23 31 -44 70 -21 38 -41 68 -43 65 -3
-3 -6 -44 -6 -93 -1 -70 -4 -87 -16 -87 -13 0 -15 24 -18 143 -2 113 0 142 11
142 7 0 35 -38 61 -85z m516 70 c0 -12 -13 -15 -55 -15 l-55 0 0 -44 0 -45 47
-3 c36 -2 49 -7 51 -20 3 -15 -4 -18 -47 -18 l-51 0 0 -45 0 -45 55 0 c48 0
55 -2 55 -20 0 -18 -7 -20 -75 -20 l-75 0 0 145 0 145 75 0 c60 0 75 -3 75
-15z m265 -80 c39 -52 73 -95 78 -95 4 0 7 43 7 95 0 78 3 95 15 95 13 0 15
-23 15 -147 -1 -118 -3 -145 -13 -133 -7 9 -43 56 -82 105 l-70 89 -3 -102
c-2 -82 -6 -102 -17 -102 -13 0 -15 24 -15 145 0 80 3 145 8 145 4 -1 39 -43
77 -95z m455 81 c0 -9 -12 -16 -32 -18 l-33 -3 -3 -127 c-2 -105 -5 -128 -17
-128 -12 0 -15 22 -15 130 l0 130 -35 0 c-24 0 -35 5 -35 15 0 12 16 15 85 15
67 0 85 -3 85 -14z"/>
<path d="M2635 8435 c-120 -58 -187 -165 -186 -295 0 -94 19 -139 153 -370 66
-113 152 -259 190 -325 39 -66 94 -160 123 -210 29 -49 167 -286 306 -525 139
-239 306 -527 371 -640 66 -113 123 -208 126 -212 4 -3 85 129 180 293 l173
300 -137 237 c-75 130 -174 300 -219 377 -82 140 -463 793 -495 850 -136 238
-262 443 -289 471 -78 78 -197 98 -296 49z"/>
<path d="M5651 8443 c-66 -23 -127 -92 -206 -231 -39 -68 -78 -136 -87 -152
-9 -16 -121 -208 -249 -427 -127 -219 -262 -450 -299 -513 -37 -63 -127 -218
-200 -345 -73 -126 -152 -261 -175 -300 -23 -38 -62 -104 -85 -145 -46 -81
-51 -91 -127 -220 -27 -47 -71 -123 -98 -170 -27 -47 -63 -107 -80 -135 -80
-124 -89 -152 -90 -260 0 -85 3 -106 23 -143 78 -146 217 -212 352 -167 70 23
115 71 189 197 33 57 69 119 81 138 11 19 61 105 110 190 49 85 94 160 100
167 5 7 10 14 10 17 0 5 93 167 222 386 47 80 119 204 160 275 41 72 145 249
230 395 85 146 192 329 237 408 46 79 88 141 94 139 7 -2 65 -96 131 -208 65
-112 166 -285 223 -384 58 -99 123 -211 145 -250 60 -106 119 -206 143 -245
25 -40 122 -206 155 -265 12 -22 44 -76 70 -120 26 -44 107 -183 180 -310 243
-420 253 -436 302 -480 105 -94 255 -84 363 24 62 62 78 93 95 177 18 90 2
154 -69 279 -105 183 -146 254 -161 275 -9 14 -31 50 -47 80 -17 30 -60 105
-95 165 -35 61 -190 326 -343 590 -153 264 -306 527 -340 585 -34 58 -106 182
-160 275 -54 94 -140 241 -191 328 -52 87 -94 160 -94 163 0 2 -18 33 -40 67
-76 122 -152 168 -273 166 -34 0 -82 -8 -106 -16z"/>
<path d="M3958 3810 c-129 -68 -151 -278 -41 -382 35 -34 92 -58 135 -58 39 0
104 29 135 59 110 105 81 322 -50 382 -55 24 -131 24 -179 -1z"/>
<path d="M2150 3745 l0 -85 94 0 c87 0 95 2 120 26 35 35 35 86 1 119 -22 23
-32 25 -120 25 l-95 0 0 -85z"/>
<path d="M3020 3745 l0 -85 93 0 c95 1 114 7 135 47 19 34 14 68 -13 97 -23
25 -29 26 -120 26 l-95 0 0 -85z"/>
<path d="M4105 2676 c-98 -48 -149 -157 -125 -269 31 -153 185 -223 308 -142
127 84 127 301 0 389 -50 36 -134 45 -183 22z"/>
<path d="M5020 2605 l0 -85 73 0 c60 0 77 4 95 20 29 27 37 64 22 101 -17 41
-37 49 -119 49 l-71 0 0 -85z"/>
<path d="M5020 2315 l0 -85 86 0 c97 0 116 7 134 49 15 37 7 74 -22 101 -18
17 -35 20 -110 20 l-88 0 0 -85z"/>
<path d="M8530 2605 l0 -85 89 0 c106 0 117 3 137 42 20 38 10 82 -23 108 -21
17 -41 20 -114 20 l-89 0 0 -85z"/>
<path d="M3530 1255 c-17 -21 2 -67 25 -59 21 9 31 54 14 65 -19 12 -25 11
-39 -6z"/>
<path d="M3509 1119 c-21 -29 -21 -34 -8 -58 19 -33 50 -38 73 -12 18 20 18
22 -8 61 -14 22 -28 40 -30 40 -3 0 -15 -14 -27 -31z"/>
<path d="M1348 1243 c-48 -30 -62 -97 -33 -153 45 -87 169 -55 181 46 8 64
-43 125 -104 124 -9 0 -29 -8 -44 -17z"/>
<path d="M4121 1161 c-12 -38 -21 -72 -21 -75 0 -3 20 -6 45 -6 30 0 45 4 45
13 0 15 -40 137 -45 137 -2 0 -12 -31 -24 -69z"/>
<path d="M5222 1244 c-58 -40 -65 -123 -16 -176 63 -65 164 -12 164 85 0 31
-7 46 -34 73 -38 38 -77 44 -114 18z"/>
<path d="M6062 1213 l3 -48 48 1 c49 0 67 12 67 46 0 30 -29 48 -76 48 l-45 0
3 -47z"/>
<path d="M6425 1209 c-46 -128 -46 -129 10 -129 25 0 45 4 45 8 0 17 -32 117
-41 126 -5 6 -10 4 -14 -5z"/>
</g>
</svg>
